<svg width="92" height="49" viewBox="0 0 92 49" fill="none" xmlns="http://www.w3.org/2000/svg">
<g clip-path="url(#clip0_2003_537)">
<path d="M81.5335 18.7819C83.944 16.3191 86.615 17.0435 86.615 19.4322C86.615 21.7636 83.878 24.2803 80.5773 26.231C80.2574 26.4163 79.8782 26.632 79.4957 26.824C79.3671 26.2378 79.2945 25.5875 79.2945 24.8632C79.2945 22.872 80.1222 20.2239 81.5335 18.7819ZM68.6766 43.9222C65.4747 47.1936 61.3826 43.0227 66.1573 38.1442C67.2389 37.0391 69.013 35.8229 70.8596 34.7145C71.9115 37.3828 71.0772 41.4594 68.6766 43.9222ZM48.2816 30.8231C45.825 30.8231 44.2356 27.8145 44.7269 24.0984C45.2084 20.3823 47.5925 17.3737 50.0458 17.3737C52.3178 17.3737 53.8478 19.9578 53.673 23.2932C53.6104 23.775 53.5543 24.2399 53.5082 24.688C52.8618 28.1211 50.5998 30.8231 48.2816 30.8231ZM15.8541 29.5867C15.0528 30.4054 14.0735 30.84 13.0809 30.84C12.1543 30.84 11.353 30.4121 10.6902 29.7349C8.41827 27.4136 8.61612 21.7164 11.5344 18.7247C12.3621 17.879 13.3612 17.3871 14.39 17.3871C15.31 17.3871 16.1179 17.8049 16.7807 18.4821C18.9208 20.6686 19.0461 26.3254 15.8541 29.5867ZM91.8712 30.8029C91.8712 30.8029 90.9611 29.5025 90.6808 29.1318C90.4895 28.8893 90.2521 28.5928 89.6256 29.0308C88.2439 29.9775 86.6875 30.8434 84.7684 30.8434C83.3043 30.8434 82.0216 30.4626 81.0686 29.6372C81.4676 29.4519 81.8864 29.2464 82.315 29.0139C84.5804 27.7606 86.4699 26.1704 87.38 25.2405C91.7887 20.736 90.4071 14.018 85.0355 14.018C79.9606 14.018 75.9509 19.0717 75.9509 24.6846C75.9509 25.5303 76.0498 26.7364 76.4059 28.02C76.1059 28.1683 74.0977 29.1622 71.6872 30.5199C69.4218 28.7815 65.8869 29.5631 65.8869 29.5631C69.1679 24.8059 74.1076 17.3737 74.5264 16.7605C74.8264 16.3225 74.7803 15.8879 74.4901 15.2006C74.1175 14.3752 73.7449 14.2235 73.2337 14.2235H62.9785C62.6422 14.2235 62.3784 14.3819 62.2795 14.7727C62.1871 15.1534 61.9695 16.4808 61.9332 16.9357C61.8871 17.3905 62.3059 17.6701 62.7411 17.6701H70.1704L63.4501 27.4911C63.4039 27.5282 63.3578 27.5753 63.3215 27.6393C62.3487 29.0779 60.8484 31.096 59.0479 31.096C57.9301 31.096 56.5484 30.2773 56.5484 27.6023C56.5484 24.9811 57.5839 19.4457 58.339 15.1332C58.4214 14.6683 58.2664 14.2134 57.5377 14.2134H55.7208C55.302 14.2134 55.0646 14.4729 55.0019 14.8367C54.8931 15.4971 54.7843 16.1473 54.6755 16.7706C53.7752 15.0153 52.3375 14.0214 50.2568 14.0214C48.3278 14.0214 46.4482 14.7559 44.9116 16.3158C41.0733 20.2374 41.8021 26.6286 38.4914 30.0112C37.0636 31.47 35.4445 31.0253 35.4445 28.1548C35.4445 24.8767 36.6712 21.2246 38.0825 17.7577C38.3265 17.1446 38.0627 16.6325 37.8022 16.2349C37.4296 15.679 37.2845 15.3791 36.6118 15.3791C35.5665 15.3791 33.8947 16.0563 30.5477 16.0563C29.8388 16.0563 29.1562 16.0294 28.5462 15.9822C28.5824 15.4701 28.5923 15.1265 28.6022 14.9984C28.622 14.5167 28.4571 14.2101 27.9559 14.2101H26.2478C25.6279 14.2101 25.4762 14.5065 25.4036 14.9984C25.1135 17.0873 24.5595 24.7621 20.7937 28.6096C20.3585 29.0544 20.0947 29.1959 20.0947 29.1959C21.0312 27.3193 21.539 24.8565 21.539 22.9057C21.539 17.4141 18.3569 14.0147 14.3636 14.0147C13.1436 14.0147 11.8543 14.4156 10.6441 15.1837C11.2079 11.8382 11.7257 8.70831 11.907 7.65041C12.062 6.7576 11.7421 6.29266 11.5146 5.92206C11.1288 5.31225 10.7892 5.04272 10.2814 5.04272H4.38873C4.05239 5.04272 3.79848 5.2853 3.71605 5.66601C3.61712 6.11073 3.40608 7.28318 3.3797 7.82224C3.35992 8.29728 3.67977 8.47248 4.05239 8.47248H8.36221C7.66974 12.7917 6.36063 21.1639 5.96164 23.2629C5.46372 25.9379 3.59734 29.2161 0.461423 30.3784C0.0690217 30.5267 -0.0925554 30.8905 0.0525342 31.3184C0.197624 31.7463 0.735115 32.8615 0.896692 33.1478C1.06157 33.4443 1.42429 33.6397 1.77053 33.5184C3.39949 32.9322 4.88995 31.9855 6.07046 30.7861C6.36063 30.4896 6.64422 30.1527 6.91461 29.7922C8.32264 33.0265 11.1882 34.2057 14.1262 34.2057C17.4435 34.2057 21.0279 33.0265 23.5373 30.4525C26.4753 27.4608 27.702 22.5014 28.2197 18.9875C28.9484 19.0885 29.7761 19.1728 30.5642 19.1728C32.5823 19.1728 34.2739 18.7348 34.2739 18.7348C34.2739 18.7348 32.2393 24.2534 32.2393 28.3233C32.2393 32.912 34.386 34.2125 36.7668 34.2125C39.2135 34.2125 40.9315 32.3359 42.1582 30.0146C42.478 30.7389 42.9496 31.6048 43.5959 32.2618C44.7039 33.3938 46.0789 34.2125 48.0607 34.2125C50.3261 34.2125 52.2716 32.8749 53.6532 30.8231C53.8973 31.6856 54.2798 32.4134 54.7975 32.9423C55.4965 33.6566 56.7793 34.2158 58.3884 34.2158C61.1517 34.2158 62.7543 32.0967 67.0542 32.0967C67.5983 32.0967 68.0897 32.1809 68.5348 32.3392C66.5629 33.5656 64.6899 34.8863 63.5424 36.0554C59.9976 39.6772 59.8327 44.4444 62.1608 46.823C64.9801 49.7036 68.9998 48.2616 71.5092 45.6978C74.4472 42.6959 75.3013 37.0223 73.5998 33.1377C75.6541 32.0327 77.3721 31.214 77.781 31.0185C79.0637 32.8109 81.1906 34.2158 84.6991 34.2158C87.2085 34.2158 89.7377 33.3062 91.7096 31.7833C92.0261 31.5677 92.0888 31.1196 91.8712 30.8029Z" fill="#212123"/>
</g>
<defs>
<clipPath id="clip0_2003_537">
<rect width="92" height="48.4099" fill="white"/>
</clipPath>
</defs>
</svg>
