<svg width="129" height="49" viewBox="0 0 129 49" fill="none" xmlns="http://www.w3.org/2000/svg">
<path d="M44.9356 35.0719V20.3926H45.1949L55.7896 35.0719H59.1236V13.5151H55.4192V28.1574H55.1598L44.5652 13.5151H41.2312V35.0719H44.9356ZM69.6071 35.4047C74.497 35.4047 77.4976 32.2248 77.4976 26.9003C77.4976 21.6128 74.497 18.3959 69.6071 18.3959C64.7543 18.3959 61.7167 21.6128 61.7167 26.9003C61.7537 32.2248 64.7173 35.4047 69.6071 35.4047ZM69.6071 32.2987C67.014 32.2987 65.5322 30.339 65.5322 26.9003C65.5322 23.4985 67.014 21.5018 69.6071 21.5018C72.2002 21.5018 73.682 23.4985 73.682 26.9003C73.682 30.339 72.2002 32.2987 69.6071 32.2987ZM80.8686 14.7353V18.8396H78.2755V21.7976H80.8686V30.7088C80.8686 33.8887 82.3504 35.1459 86.1289 35.1459C86.8327 35.1459 87.5366 35.0719 88.0922 34.961V32.0769C87.6477 32.1138 87.3513 32.1508 86.8327 32.1508C85.2769 32.1508 84.573 31.4483 84.573 29.8214V21.7976H88.0922V18.8396H84.573V14.7353H80.8686ZM90.3149 35.0719H94.0193V18.7287H90.3149V35.0719ZM92.1671 16.0294C93.3896 16.0294 94.3898 15.0311 94.3898 13.8109C94.3898 12.5537 93.3896 11.5554 92.1671 11.5554C90.9446 11.5554 89.9444 12.5537 89.9444 13.8109C89.9444 15.0311 90.9446 16.0294 92.1671 16.0294ZM104.169 35.4047C109.059 35.4047 112.06 32.2248 112.06 26.9003C112.06 21.6128 109.059 18.3959 104.169 18.3959C99.3166 18.3959 96.279 21.6128 96.279 26.9003C96.279 32.2248 99.2426 35.4047 104.169 35.4047ZM104.169 32.2987C101.576 32.2987 100.095 30.339 100.095 26.9003C100.095 23.4985 101.576 21.5018 104.169 21.5018C106.726 21.5018 108.244 23.4985 108.244 26.9003C108.207 30.339 106.726 32.2987 104.169 32.2987ZM114.245 35.0719H117.95V25.5692C117.95 23.1657 119.358 21.6497 121.543 21.6497C123.803 21.6497 124.84 22.9069 124.84 25.3843V35.0719H128.545V24.4969C128.545 20.5774 126.544 18.3959 122.914 18.3959C120.469 18.3959 118.839 19.5052 118.061 21.3539H117.802V18.7287H114.208C114.245 18.7287 114.245 35.0719 114.245 35.0719Z" fill="black"/>
<path fill-rule="evenodd" clip-rule="evenodd" d="M5.71206 12.1354C6.79023 13.0126 7.18021 12.9433 9.19893 12.8048L28.2162 11.6506C28.6291 11.6506 28.285 11.2351 28.1474 11.1889L24.9816 8.90348C24.3852 8.44178 23.5594 7.88774 22.0224 8.02625L3.62452 9.38826C2.95926 9.45751 2.82162 9.80379 3.0969 10.0577L5.71206 12.1354ZM6.85905 16.5907V36.7208C6.85905 37.8058 7.38667 38.1982 8.60249 38.129L29.5008 36.9054C30.7166 36.8362 30.8543 36.0975 30.8543 35.2203V15.2287C30.8543 14.3515 30.5102 13.8667 29.7761 13.936L7.93723 15.2287C7.13433 15.298 6.85905 15.7135 6.85905 16.5907ZM27.4821 17.6757C27.6197 18.2759 27.4821 18.8992 26.8857 18.9685L25.8763 19.1763V34.0429C25.0046 34.5046 24.2017 34.7816 23.5135 34.7816C22.4353 34.7816 22.16 34.4354 21.3571 33.4196L14.7733 23.0083V33.0734L16.8609 33.5351C16.8609 33.5351 16.8609 34.7586 15.1863 34.7586L10.5524 35.0356C10.4148 34.7586 10.5524 34.0891 11.0112 33.9506L12.227 33.6043V20.3074L10.5524 20.1689C10.4148 19.5687 10.7589 18.6915 11.6994 18.6222L16.6774 18.2759L23.5364 28.8027V19.4994L21.793 19.2917C21.6553 18.553 22.2059 17.9989 22.8712 17.9297L27.4821 17.6757ZM2.08754 7.54147L21.2424 6.13329C23.5823 5.92552 24.2017 6.06403 25.6698 7.14902L31.7719 11.4659C32.7812 12.2046 33.1253 12.4124 33.1253 13.2204V36.9285C33.1253 38.406 32.5977 39.2832 30.7166 39.4217L8.48779 40.7837C7.06552 40.853 6.40026 40.6452 5.66618 39.6987L1.147 33.8121C0.3441 32.7271 0 31.9191 0 30.9726V9.89613C0 8.67263 0.550559 7.67998 2.08754 7.54147Z" fill="black"/>
</svg>
