<svg width="180" height="49" viewBox="0 0 180 49" fill="none" xmlns="http://www.w3.org/2000/svg">
<path fill-rule="evenodd" clip-rule="evenodd" d="M26.2179 14.8587C26.9321 15.0307 27.5585 15.4619 27.9776 16.07C28.412 16.837 28.6189 17.7137 28.5735 18.5958C28.5729 19.7552 28.3971 20.9078 28.0521 22.0137C27.6465 23.3046 27.139 24.5606 26.5345 25.7697L25.8269 27.3378L22.3448 18.8118C22.1746 18.4056 22.0315 17.9884 21.9166 17.5629C21.8254 17.2382 21.7692 16.9045 21.749 16.5676C21.7313 16.1417 21.8824 15.7261 22.1688 15.4126C22.4552 15.0991 22.8535 14.9133 23.2759 14.8962V14.6427H12.7738V14.8962C13.1311 14.9621 13.4765 15.0825 13.7979 15.253C14.1259 15.4755 14.4023 15.767 14.6079 16.1075C14.9707 16.6827 15.2822 17.2892 15.539 17.9198L17.1776 21.8635L14.2169 27.7697L9.80379 17.4409C9.6902 17.2345 9.59666 17.0175 9.52448 16.793C9.48684 16.6296 9.46502 16.4629 9.45931 16.2953C9.45693 15.9809 9.56964 15.6766 9.77586 15.4408C10.0304 15.1638 10.3508 14.9569 10.7069 14.8399V14.6051H0V14.8587C0.870736 15.1268 1.65911 15.6149 2.29034 16.2765C3.11876 17.2376 3.79691 18.3205 4.30138 19.4879L11.0793 34.6806H11.3586L17.4662 22.4738L22.6893 34.6806H22.9686L29.1786 21.1593C29.8366 19.6193 30.6675 18.1606 31.6552 16.8118C32.3003 15.9663 33.1324 15.2846 34.0852 14.8211V14.577H26.2179V14.8587Z" fill="#54575A"/>
<path d="M43.2931 28.2768C42.6228 30.0139 41.1424 30.8684 38.8055 30.8684C37.5374 30.9359 36.3032 30.4421 35.4259 29.5162C34.5301 28.4252 34.0747 27.0339 34.1503 25.6194H43.4607V25.441C43.4758 24.3154 43.1511 23.2118 42.5297 22.2766C41.8935 21.3732 41.033 20.6543 40.0345 20.1921C38.939 19.6886 37.7469 19.4353 36.5431 19.4503C35.2035 19.4328 33.8812 19.7557 32.6979 20.3893C31.5443 21.0062 30.5787 21.928 29.9048 23.056C29.1862 24.2756 28.8246 25.6755 28.8621 27.0936C28.8341 28.407 29.1556 29.704 29.7931 30.8496C30.4211 31.9449 31.3359 32.8448 32.4372 33.4506C33.6157 34.0968 34.9414 34.4205 36.2824 34.3895C37.9902 34.47 39.6695 33.9266 41.0121 32.859C42.3587 31.6982 43.2637 30.1017 43.5724 28.3425L43.2931 28.2768ZM34.7555 21.2625C34.9743 20.443 35.7109 19.8734 36.5524 19.8728C36.808 19.874 37.0598 19.9351 37.2879 20.0513C37.5272 20.1841 37.7241 20.3828 37.8559 20.624C38.0013 20.857 38.12 21.1058 38.2097 21.3658C38.3288 21.737 38.4008 22.1219 38.4238 22.5114C38.4238 22.9715 38.489 23.61 38.489 24.3894V25.103H34.1503C34.1539 24.3653 34.2005 23.6285 34.29 22.8964C34.3937 22.3259 34.5495 21.7664 34.7555 21.225V21.2625Z" fill="#54575A"/>
<path d="M59.9119 32.0796C59.822 32.1587 59.705 32.1991 59.586 32.1923H59.2694C58.9661 32.1979 58.6839 32.0358 58.5339 31.7697C58.32 31.2406 58.2338 30.6677 58.2826 30.0983V23.2907C58.3656 22.2115 58.032 21.1418 57.3515 20.3047C56.6 19.5974 55.5805 19.2546 54.5584 19.3658C53.4283 19.3853 52.3039 19.5333 51.2067 19.8071C49.9605 20.09 48.7513 20.5186 47.6036 21.0841C46.6677 21.4754 45.824 22.0609 45.127 22.8024C44.6397 23.3083 44.3517 23.9759 44.317 24.6804C44.2947 25.2302 44.5125 25.7621 44.9129 26.1358C45.3569 26.5118 45.9261 26.7032 46.505 26.6711C47.207 26.6515 47.8743 26.3588 48.367 25.8541C48.9626 25.2256 49.2698 24.3742 49.2143 23.5067V23.009C49.1686 22.2817 49.3834 21.5619 49.8195 20.9808C50.1681 20.5389 50.7028 20.2884 51.2626 20.3047C51.6623 20.2863 52.0574 20.3982 52.3891 20.624C52.7452 20.9067 52.9868 21.3106 53.0688 21.7602C53.2309 22.5093 53.3028 23.2754 53.2829 24.0419V25.5349C51.8398 25.9574 50.4898 26.4175 49.4005 26.8495C48.3023 27.2703 47.2297 27.7563 46.1884 28.3049C45.0214 28.8227 44.2509 29.9682 44.2053 31.2533C44.1936 32.1423 44.6145 32.9807 45.3319 33.4975C46.1793 34.0922 47.1958 34.3922 48.2274 34.3519C49.2897 34.3709 50.3418 34.1394 51.2998 33.6759C52.0979 33.2472 52.7962 32.6518 53.3481 31.9294C53.413 32.6062 53.7131 33.2381 54.1953 33.7134C54.7078 34.17 55.3739 34.4119 56.0574 34.3895C56.8245 34.4006 57.5804 34.2027 58.2453 33.8167C58.9604 33.433 59.5686 32.8745 60.0143 32.1923L59.9119 32.0796ZM51.6163 32.3331C50.527 32.3331 49.9591 31.5819 49.9591 30.0514C49.9484 29.1334 50.2808 28.2451 50.8901 27.5631C51.5738 26.8814 52.4059 26.3701 53.3201 26.0701V30.3143C53.3581 30.852 53.1954 31.3845 52.8639 31.8073C52.5739 32.1723 52.1258 32.3719 51.6629 32.3425L51.6163 32.3331Z" fill="#54575A"/>
<path fill-rule="evenodd" clip-rule="evenodd" d="M59.9119 33.6477C60.4102 33.6531 60.8756 33.3971 61.1409 32.9717C61.4667 32.2088 61.601 31.3767 61.5319 30.5491V18.6334C61.6166 17.6256 61.4199 16.614 60.964 15.7131C60.6402 15.1624 60.0436 14.8345 59.4092 14.8586V14.5394C60.5823 14.2483 61.8112 13.9666 63.0123 13.6004C64.2133 13.2342 65.4143 12.9337 66.4664 12.5487V31.1219C66.417 31.7646 66.5258 32.4097 66.783 32.9998C67.0271 33.3492 67.4207 33.5616 67.8444 33.5726V33.8919H59.9119V33.6477Z" fill="#54575A"/>
<path fill-rule="evenodd" clip-rule="evenodd" d="M70.386 33.5726C69.7264 32.811 69.4065 31.8093 69.5015 30.8026V21.009H67.3508L67.2856 20.7648C68.1441 20.3375 68.9582 19.8248 69.7156 19.2343C70.5927 18.5356 71.4289 17.7862 72.2201 16.9901C72.9962 16.2014 73.715 15.3572 74.3708 14.4643L74.6222 14.5394V19.7695H77.8622L77.1639 20.9808H74.6222V29.8354C74.5753 30.4849 74.7074 31.1349 75.0039 31.7134C75.2536 32.076 75.6649 32.2904 76.1025 32.2862C76.3404 32.2732 76.577 32.2418 76.8101 32.1923C77.0381 32.143 77.2535 32.0472 77.4432 31.9106L77.6201 32.1641C76.877 32.801 76.0723 33.361 75.2181 33.8355C74.4858 34.2112 73.6748 34.4044 72.8532 34.3989C71.9578 34.4528 71.0755 34.1607 70.386 33.582V33.5726Z" fill="#54575A"/>
<path fill-rule="evenodd" clip-rule="evenodd" d="M93.1781 33.0374C92.9454 32.3397 92.8505 31.6028 92.8988 30.8683V23.4316C92.8988 20.7649 91.8002 19.4127 89.6495 19.4127C89.0753 19.4006 88.5029 19.4831 87.955 19.6569C87.3576 19.8705 86.7885 20.1575 86.2605 20.5113C85.7019 20.9057 84.9943 21.4503 84.1843 22.117V12.6145C83.0485 12.9713 81.9312 13.3281 80.7581 13.6474C79.585 13.9666 78.3933 14.2859 77.0898 14.5864V14.9056C77.7242 14.8815 78.3209 15.2094 78.6447 15.7601C79.0822 16.6637 79.275 17.6679 79.2033 18.6709V30.3143C79.2788 31.2121 79.1349 32.1148 78.7843 32.9435C78.5038 33.3953 78.0093 33.666 77.4809 33.6571V33.9764H85.525V33.6571C85.1012 33.6486 84.7127 33.4171 84.5009 33.0468C84.2324 32.3577 84.1241 31.6156 84.1843 30.8777V22.6147C84.5322 22.3061 84.9246 22.0528 85.3481 21.8635C85.6741 21.6929 86.0333 21.5968 86.4002 21.5818C86.873 21.571 87.316 21.8141 87.564 22.2203C87.9051 22.8887 88.0535 23.6402 87.9923 24.3894V30.8683C88.0037 31.4398 87.9695 32.0113 87.8898 32.5773C87.8576 32.8763 87.7186 33.1533 87.4988 33.3567C87.2625 33.5309 86.9811 33.632 86.6888 33.6477V33.967H94.2023V33.6477C93.7758 33.6489 93.3828 33.4147 93.1781 33.0374Z" fill="#54575A"/>
<path fill-rule="evenodd" clip-rule="evenodd" d="M99.5648 34.183C98.8945 34.0327 98.2614 33.9294 97.7028 33.8262C97.2155 33.7229 96.7201 33.6632 96.2224 33.6477C95.9978 33.6543 95.7738 33.6763 95.5521 33.7135C95.3702 33.7722 95.1928 33.8444 95.0214 33.9294V27.3566L95.31 27.2814C96.1401 28.6332 97.074 29.9173 98.1031 31.1219C98.7606 31.9249 99.5475 32.6106 100.431 33.1501C101.072 33.5316 101.8 33.7417 102.544 33.7604C103.081 33.8099 103.616 33.6447 104.034 33.3003C104.347 32.9785 104.512 32.5393 104.49 32.089C104.514 31.5203 104.281 30.9712 103.857 30.596C103.162 30.0749 102.393 29.6633 101.576 29.3754L99.5276 28.5585C98.2599 28.1209 97.0873 27.442 96.0735 26.5584C95.4147 25.8887 95.0579 24.9754 95.0866 24.0325C95.0611 23.1957 95.2955 22.3717 95.7569 21.6757C96.2385 20.9456 96.9079 20.3614 97.6935 19.9855C98.6431 19.5403 99.6817 19.3218 100.729 19.347C101.352 19.3395 101.975 19.3866 102.591 19.4879C103.187 19.6005 103.754 19.6663 104.211 19.7789C104.667 19.8916 105.058 19.9198 105.309 19.9198C105.473 19.9399 105.639 19.9399 105.803 19.9198L106.119 19.8165L106.51 25.1499L106.259 25.2251C105.391 23.7405 104.322 22.3848 103.084 21.1968C102.328 20.4632 101.338 20.024 100.291 19.9574C99.7791 19.9284 99.2747 20.0924 98.8759 20.4175C98.5027 20.7208 98.2924 21.1832 98.3079 21.6663C98.2827 22.189 98.4911 22.6956 98.8759 23.0466C99.4241 23.5031 100.057 23.8447 100.738 24.0513L103.168 24.8682C104.383 25.2007 105.507 25.8075 106.454 26.6429C107.121 27.3229 107.478 28.251 107.441 29.2063C107.502 30.6532 106.918 32.0517 105.849 33.0186C104.642 33.9865 103.126 34.4773 101.585 34.3989C100.898 34.3878 100.213 34.3187 99.5369 34.1924L99.5648 34.183Z" fill="#54575A"/>
<path fill-rule="evenodd" clip-rule="evenodd" d="M111.492 18.4831C112.296 18.5064 113.075 18.1963 113.647 17.625C114.218 17.0537 114.533 16.2712 114.517 15.4596C114.498 14.6965 114.199 13.9676 113.679 13.4126C113.125 12.7866 112.323 12.4423 111.492 12.4736C110.977 12.4679 110.472 12.6148 110.039 12.8962C109.588 13.1716 109.208 13.5514 108.931 14.0042C108.659 14.4407 108.511 14.9441 108.503 15.4596C108.51 16.2717 108.846 17.0454 109.434 17.6005C109.968 18.1708 110.714 18.4907 111.492 18.4831Z" fill="#54575A"/>
<path fill-rule="evenodd" clip-rule="evenodd" d="M140.381 33.075C140.117 32.4702 140.009 31.8083 140.065 31.1501V23.4316C140.065 20.7649 138.975 19.4128 136.825 19.4128C136.224 19.4163 135.628 19.5112 135.056 19.6945C134.429 19.9244 133.837 20.2404 133.296 20.6334C132.649 21.06 132.027 21.524 131.434 22.0231C131.351 21.3546 131.038 20.7367 130.549 20.2766C129.894 19.7087 129.048 19.4162 128.185 19.4597C127.215 19.4686 126.26 19.6998 125.392 20.1358C124.472 20.5706 123.629 21.1542 122.896 21.8635V19.4128C122.226 19.6569 121.481 19.948 120.671 20.1921C119.861 20.4363 119.051 20.7273 118.241 20.9809C117.431 21.2344 116.761 21.4034 116.193 21.5443V21.8635C116.743 21.8738 117.249 22.1681 117.534 22.6429C117.85 23.5067 117.984 24.428 117.925 25.3471V31.1501C117.988 31.821 117.798 32.4914 117.394 33.028C117.06 33.3762 116.599 33.5699 116.118 33.5633C115.614 33.6034 115.119 33.4058 114.778 33.028C114.419 32.4725 114.258 31.8101 114.322 31.1501V19.3095C113.232 19.732 112.096 20.1264 110.905 20.4832C109.713 20.84 108.465 21.1874 107.227 21.4785V21.7602C107.906 21.7617 108.536 22.1167 108.894 22.6992C109.274 23.5865 109.443 24.5512 109.387 25.5162V30.2111C109.439 31.0961 109.306 31.9823 108.996 32.8121C108.732 33.3071 108.213 33.6088 107.655 33.5914V33.9107H124.237V33.5914C123.817 33.5469 123.44 33.3119 123.213 32.9529C122.954 32.3632 122.845 31.7178 122.896 31.075V22.4739C123.166 22.2065 123.482 21.9902 123.827 21.8353C124.168 21.6631 124.545 21.5762 124.926 21.5818C125.415 21.547 125.884 21.7802 126.155 22.1922C126.469 22.869 126.603 23.6163 126.546 24.3612V31.1219C126.6 31.7648 126.491 32.411 126.229 32.9999C126.01 33.3387 125.643 33.5516 125.243 33.5727V33.8919H132.858V33.5727C132.441 33.5478 132.056 33.3382 131.806 32.9999C131.568 32.3785 131.469 31.7114 131.518 31.0468V22.4363C131.826 22.1593 132.156 21.9081 132.505 21.6851C132.837 21.4848 133.216 21.3748 133.603 21.3659C134.078 21.3551 134.523 21.6025 134.767 22.0138C135.104 22.7204 135.249 23.5046 135.186 24.2861V31.0468C135.244 31.7109 135.162 32.3799 134.944 33.0093C134.709 33.3632 134.304 33.5636 133.883 33.5351V33.8543H141.517V33.5351C141.079 33.6586 140.613 33.4699 140.381 33.075Z" fill="#54575A"/>
<path d="M157 23.5067C156.839 22.6807 156.474 21.9089 155.939 21.2625C155.042 20.0562 153.626 19.3576 152.131 19.3846C151.344 19.3691 150.562 19.5261 149.841 19.8447C149.137 20.1812 148.482 20.6141 147.895 21.1311V19.3752C147.225 19.6287 146.452 19.8728 145.642 20.1639C144.832 20.455 143.984 20.6898 143.137 20.9433C142.29 21.1968 141.545 21.4034 140.847 21.5818V21.8635C141.289 21.9097 141.719 22.0404 142.113 22.2485C142.457 22.5062 142.685 22.8914 142.746 23.3189C142.906 23.9824 142.978 24.6645 142.96 25.3471V35.2065C142.992 36.0189 142.907 36.8316 142.709 37.6196C142.608 38.0953 142.332 38.5147 141.936 38.7934C141.536 39.0262 141.092 39.1733 140.633 39.2253V39.5446H150.083V39.2253C149.449 39.2259 148.841 38.9686 148.398 38.5117C147.996 37.8133 147.82 37.0058 147.895 36.2018V33.5069C148.218 33.7541 148.58 33.9446 148.966 34.0703C149.515 34.2395 150.086 34.3249 150.66 34.3238C151.54 34.3229 152.412 34.1541 153.23 33.8262C154.03 33.4791 154.753 32.9711 155.352 32.3332C155.996 31.6074 156.487 30.7577 156.796 29.8355C157.17 28.7847 157.356 27.675 157.345 26.5584C157.348 25.5182 157.229 24.4813 156.991 23.4692L157 23.5067ZM151.247 31.9576C150.926 32.8109 150.139 33.3953 149.236 33.4506C148.935 33.4516 148.637 33.3909 148.36 33.2722C148.179 33.1795 148.012 33.0591 147.867 32.9153V21.6475C148.329 21.2345 148.909 20.9812 149.524 20.9245C150.26 20.9245 150.865 21.4222 151.386 22.3799C151.952 23.8531 152.193 25.4326 152.094 27.0091C152.094 29.319 151.842 30.9623 151.275 31.9576H151.247Z" fill="#54575A"/>
<path fill-rule="evenodd" clip-rule="evenodd" d="M157.177 33.6478C157.678 33.6546 158.147 33.3986 158.415 32.9717C158.732 32.2063 158.863 31.3758 158.797 30.5491V18.6334C158.879 17.6268 158.686 16.6167 158.238 15.7132C157.915 15.1624 157.318 14.8345 156.684 14.8587V14.5394C157.847 14.2483 159.086 13.9666 160.287 13.6004C161.488 13.2342 162.679 12.9244 163.741 12.5394V31.1219C163.687 31.7648 163.796 32.411 164.057 32.9999C164.302 33.3492 164.695 33.5616 165.119 33.5726V33.8919H157.177V33.6478Z" fill="#54575A"/>
<path d="M179.373 28.2767C178.703 30.0139 177.185 30.8683 174.885 30.8683C173.619 30.9283 172.387 30.4357 171.506 29.5162C170.604 28.4304 170.159 27.0316 170.268 25.6194H179.578V25.441C179.588 24.3161 179.263 23.214 178.647 22.2766C178.01 21.3766 177.158 20.6531 176.17 20.1733C173.82 19.1136 171.119 19.1931 168.834 20.3893C167.679 21.0054 166.714 21.9274 166.041 23.056C165.319 24.2682 164.951 25.6612 164.979 27.0748C164.951 28.3882 165.273 29.6852 165.91 30.8308C166.542 31.9265 167.46 32.8262 168.564 33.4318C169.742 34.0792 171.068 34.4031 172.409 34.3707C174.125 34.4504 175.813 33.9074 177.166 32.8402C178.494 31.6774 179.385 30.0893 179.69 28.3425L179.373 28.2767ZM170.835 21.2625C171.075 20.4576 171.799 19.8978 172.632 19.8728C172.888 19.874 173.14 19.935 173.368 20.0512C173.607 20.1841 173.804 20.3827 173.936 20.624C174.081 20.857 174.2 21.1058 174.29 21.3658C174.409 21.737 174.481 22.1219 174.504 22.5114C174.504 22.9715 174.569 23.61 174.569 24.3893V25.103H170.23C170.234 24.3653 170.28 23.6285 170.37 22.8964C170.474 22.3259 170.629 21.7664 170.835 21.225V21.2625Z" fill="#54575A"/>
</svg>
